<svg width="512" height="512" viewBox="0 0 512 512" fill="none" xmlns="http://www.w3.org/2000/svg">
<g id="pharmacokinetics" clip-path="url(#clip0_1_2)">
<rect width="512" height="512" fill="white"/>
<g id="axis">
<path id="y-axis" d="M47 0V475" stroke="#D5D5D5" stroke-width="3"/>
<path id="x-axis" d="M510 474L45.5 474" stroke="#D4D4D4" stroke-width="3"/>
</g>
<g id="axis-text">
<path id="t (h)" d="M247.27 499.434V501.426H241.117V499.434H247.27ZM242.641 496.826H245.453V506.816C245.453 507.122 245.492 507.357 245.57 507.52C245.655 507.682 245.779 507.796 245.941 507.861C246.104 507.92 246.309 507.949 246.557 507.949C246.732 507.949 246.889 507.943 247.025 507.93C247.169 507.91 247.289 507.891 247.387 507.871L247.396 509.941C247.156 510.02 246.895 510.081 246.615 510.127C246.335 510.173 246.026 510.195 245.688 510.195C245.069 510.195 244.529 510.094 244.066 509.893C243.611 509.684 243.259 509.352 243.012 508.897C242.764 508.441 242.641 507.842 242.641 507.1V496.826ZM253.979 504.434V504.219C253.979 502.845 254.122 501.598 254.408 500.479C254.701 499.359 255.085 498.376 255.561 497.529C256.042 496.676 256.566 495.97 257.133 495.41C257.699 494.85 258.262 494.447 258.822 494.199L259.359 495.684C258.988 495.957 258.624 496.335 258.266 496.816C257.908 497.292 257.582 497.878 257.289 498.574C257.003 499.264 256.771 500.078 256.596 501.016C256.42 501.947 256.332 503.008 256.332 504.199V504.453C256.332 505.645 256.42 506.709 256.596 507.647C256.771 508.578 257.003 509.391 257.289 510.088C257.582 510.791 257.908 511.384 258.266 511.865C258.624 512.347 258.988 512.728 259.359 513.008L258.822 514.453C258.262 514.206 257.699 513.802 257.133 513.242C256.566 512.689 256.042 511.986 255.561 511.133C255.085 510.287 254.701 509.303 254.408 508.184C254.122 507.057 253.979 505.807 253.979 504.434ZM263.588 495V510H260.775V495H263.588ZM263.188 504.346H262.416C262.423 503.61 262.52 502.933 262.709 502.315C262.898 501.69 263.168 501.149 263.52 500.693C263.871 500.231 264.291 499.873 264.779 499.619C265.274 499.365 265.821 499.238 266.42 499.238C266.941 499.238 267.413 499.313 267.836 499.463C268.266 499.606 268.633 499.841 268.939 500.166C269.252 500.485 269.493 500.905 269.662 501.426C269.831 501.947 269.916 502.578 269.916 503.32V510H267.084V503.301C267.084 502.832 267.016 502.464 266.879 502.197C266.749 501.924 266.557 501.732 266.303 501.621C266.055 501.504 265.749 501.445 265.385 501.445C264.981 501.445 264.636 501.52 264.35 501.67C264.07 501.82 263.845 502.028 263.676 502.295C263.507 502.555 263.383 502.861 263.305 503.213C263.227 503.565 263.188 503.942 263.188 504.346ZM276.889 504.219V504.434C276.889 505.762 276.739 506.986 276.439 508.106C276.14 509.219 275.743 510.205 275.248 511.065C274.76 511.93 274.223 512.65 273.637 513.223C273.057 513.796 272.478 514.206 271.898 514.453L271.352 513.008C271.723 512.734 272.084 512.357 272.436 511.875C272.794 511.393 273.119 510.801 273.412 510.098C273.705 509.401 273.936 508.584 274.105 507.647C274.281 506.709 274.369 505.645 274.369 504.453V504.199C274.369 503.008 274.281 501.943 274.105 501.006C273.93 500.068 273.692 499.251 273.393 498.555C273.1 497.852 272.774 497.262 272.416 496.787C272.064 496.305 271.71 495.928 271.352 495.654L271.898 494.199C272.478 494.447 273.057 494.86 273.637 495.44C274.223 496.012 274.76 496.729 275.248 497.588C275.743 498.447 276.14 499.437 276.439 500.557C276.739 501.67 276.889 502.891 276.889 504.219Z" fill="#D4D4D4"/>
<path id="C (mg/L)" d="M11.3918 269.637L11.4255 266.717C12.3818 266.786 13.2283 267.06 13.965 267.537C14.7018 268.008 15.2738 268.662 15.6808 269.5C16.0879 270.332 16.2848 271.33 16.2714 272.496C16.2609 273.407 16.0952 274.222 15.7744 274.941C15.4471 275.66 14.9843 276.273 14.386 276.781C13.7877 277.282 13.0671 277.661 12.2243 277.918C11.3814 278.175 10.4392 278.298 9.39759 278.286L8.41132 278.275C7.36973 278.263 6.43061 278.115 5.59397 277.832C4.75089 277.542 4.03611 277.137 3.44963 276.616C2.86321 276.088 2.41467 275.461 2.10401 274.735C1.79334 274.009 1.64314 273.2 1.65341 272.308C1.66705 271.123 1.89339 270.126 2.33242 269.317C2.77152 268.502 3.37124 267.874 4.13157 267.434C4.89197 266.987 5.75444 266.723 6.71897 266.643L6.68523 269.573C6.11198 269.599 5.62568 269.707 5.22632 269.898C4.82045 270.088 4.51432 270.381 4.30794 270.776C4.09513 271.164 3.98497 271.684 3.97747 272.335C3.97185 272.823 4.05808 273.25 4.23616 273.617C4.41424 273.984 4.68739 274.293 5.05562 274.544C5.42384 274.796 5.89042 274.987 6.45536 275.117C7.01387 275.241 7.67071 275.307 8.42586 275.316L9.43166 275.327C10.1673 275.336 10.8157 275.288 11.3768 275.184C11.9314 275.079 12.4021 274.915 12.7888 274.692C13.1691 274.462 13.459 274.166 13.6585 273.804C13.8515 273.435 13.9511 272.99 13.9571 272.469C13.9641 271.857 13.8723 271.351 13.6815 270.952C13.4908 270.553 13.2046 270.247 12.8229 270.034C12.4413 269.815 11.9643 269.682 11.3918 269.637ZM10.6548 259.852L10.44 259.85C9.06641 259.834 7.82139 259.676 6.70498 259.377C5.58863 259.071 4.61005 258.676 3.76922 258.191C2.92196 257.699 2.22166 257.167 1.66832 256.594C1.11499 256.021 0.717851 255.453 0.476918 254.891L1.96738 254.371C2.23653 254.745 2.60991 255.114 3.08752 255.477C3.55863 255.841 4.14078 256.173 4.83398 256.474C5.52074 256.769 6.33182 257.009 7.26724 257.196C8.19614 257.382 9.25626 257.482 10.4476 257.496L10.7015 257.499C11.8928 257.513 12.9582 257.437 13.8977 257.272C14.8306 257.107 15.647 256.885 16.3469 256.607C17.0533 256.322 17.6495 256.003 18.1354 255.651C18.6212 255.298 19.0062 254.938 19.2904 254.57L20.7295 255.124C20.4757 255.681 20.0656 256.239 19.4992 256.799C18.9393 257.359 18.2302 257.875 17.3718 258.347C16.5201 258.813 15.5326 259.185 14.4095 259.466C13.28 259.739 12.0285 259.868 10.6548 259.852ZM7.95396 250.143L16.3323 250.239L16.2998 253.061L5.73411 252.939L5.76458 250.293L7.95396 250.143ZM10.6739 250.565L10.6649 251.346C9.92927 251.337 9.25324 251.242 8.63682 251.059C8.01396 250.869 7.47666 250.599 7.02494 250.249C6.56678 249.892 6.21371 249.455 5.96575 248.938C5.71778 248.421 5.59769 247.824 5.60549 247.147C5.61089 246.678 5.68744 246.249 5.83516 245.86C5.97637 245.471 6.19831 245.138 6.501 244.862C6.79724 244.579 7.18388 244.362 7.66091 244.211C8.13143 244.06 8.69544 243.989 9.35295 243.996L16.4033 244.077L16.3709 246.89L9.63304 246.812C9.15131 246.807 8.77949 246.867 8.51759 246.995C8.25569 247.122 8.07127 247.305 7.96434 247.545C7.85748 247.778 7.80214 248.061 7.79832 248.393C7.79412 248.757 7.86531 249.077 8.01189 249.352C8.15855 249.621 8.36432 249.845 8.62921 250.023C8.88758 250.202 9.19205 250.336 9.54262 250.425C9.89318 250.513 10.2703 250.56 10.6739 250.565ZM10.4241 244.272L10.5394 245.279C9.84937 245.271 9.20911 245.179 8.61865 245.003C8.02826 244.821 7.51042 244.558 7.06513 244.214C6.61992 243.864 6.27654 243.433 6.03501 242.923C5.78697 242.412 5.66677 241.825 5.67442 241.161C5.68026 240.653 5.76045 240.192 5.91498 239.777C6.06299 239.362 6.29818 239.009 6.62055 238.72C6.93647 238.424 7.34923 238.201 7.8588 238.051C8.36846 237.894 8.9911 237.82 9.72673 237.828L16.4743 237.906L16.4418 240.728L9.69423 240.65C9.20598 240.645 8.83416 240.705 8.57877 240.833C8.31695 240.953 8.13583 241.134 8.0354 241.373C7.92855 241.607 7.87324 241.886 7.86949 242.211C7.8656 242.55 7.93054 242.847 8.06433 243.102C8.1916 243.358 8.37145 243.571 8.60386 243.743C8.83627 243.915 9.10822 244.045 9.41973 244.134C9.72472 244.222 10.0595 244.268 10.4241 244.272ZM6.01072 228.918L6.04007 226.369L16.2542 226.487C17.2177 226.498 18.0322 226.722 18.6978 227.159C19.37 227.59 19.8742 228.189 20.2105 228.954C20.5532 229.72 20.7188 230.607 20.7072 231.616C20.7021 232.059 20.6381 232.527 20.5152 233.02C20.3924 233.507 20.2047 233.974 19.9522 234.42C19.6997 234.86 19.383 235.228 19.0019 235.523L17.3562 234.263C17.7375 233.942 18.0348 233.568 18.2481 233.141C18.4678 232.714 18.5807 232.24 18.5867 231.719C18.5926 231.211 18.5031 230.78 18.3184 230.427C18.1401 230.073 17.8731 229.8 17.5172 229.607C17.1679 229.414 16.7425 229.315 16.2413 229.309L8.44881 229.219L6.01072 228.918ZM11.3387 236.089L11.1336 236.086C10.3264 236.077 9.59511 235.971 8.93985 235.768C8.27815 235.559 7.71179 235.269 7.24076 234.899C6.7698 234.522 6.40716 234.069 6.15283 233.539C5.89851 233.008 5.77516 232.411 5.78281 231.747C5.79091 231.044 5.92789 230.456 6.19376 229.984C6.45963 229.512 6.8352 229.126 7.32046 228.825C7.79921 228.525 8.36506 228.294 9.01801 228.132C9.66452 227.964 10.3724 227.835 11.1417 227.746L11.5909 227.751C12.3254 227.857 13.0073 228.012 13.6365 228.214C14.2657 228.417 14.8161 228.68 15.2877 229.005C15.7527 229.329 16.1127 229.731 16.3676 230.209C16.6226 230.681 16.7464 231.242 16.7389 231.893C16.7314 232.544 16.5912 233.131 16.3182 233.656C16.0453 234.173 15.6658 234.615 15.1798 234.981C14.6938 235.346 14.1241 235.626 13.4708 235.82C12.8175 236.008 12.1068 236.098 11.3387 236.089ZM11.166 233.274L11.371 233.276C11.8072 233.282 12.2146 233.244 12.5931 233.164C12.9717 233.083 13.3084 232.957 13.6034 232.785C13.892 232.606 14.1191 232.384 14.285 232.119C14.4443 231.847 14.5262 231.526 14.5304 231.155C14.5364 230.64 14.4338 230.219 14.2227 229.891C14.0051 229.563 13.7052 229.315 13.323 229.148C12.9408 228.981 12.4992 228.882 11.9982 228.85L10.719 228.835C10.3087 228.843 9.94028 228.894 9.61366 228.988C9.28052 229.082 8.99577 229.216 8.75938 229.389C8.523 229.562 8.3381 229.788 8.20467 230.066C8.07125 230.344 8.00233 230.676 7.9979 231.06C7.99363 231.431 8.07455 231.754 8.24066 232.029C8.40034 232.298 8.62235 232.525 8.90669 232.711C9.1911 232.89 9.52808 233.027 9.91763 233.123C10.3007 233.219 10.7168 233.269 11.166 233.274ZM2.48309 218.066L17.8615 223.458L17.8374 225.548L2.45903 220.155L2.48309 218.066ZM14.5387 207.54L16.8237 207.566L16.7413 214.724L14.4563 214.697L14.5387 207.54ZM2.53436 213.613L16.7522 213.777L16.7184 216.706L2.50063 216.542L2.53436 213.613ZM11.1158 201.162L11.3306 201.165C12.6587 201.18 13.8808 201.344 14.9971 201.656C16.1068 201.968 17.0885 202.377 17.9422 202.881C18.8024 203.38 19.5155 203.925 20.0817 204.517C20.6479 205.103 21.0513 205.688 21.292 206.27L19.8405 206.8C19.5714 206.426 19.198 206.06 18.7203 205.703C18.2426 205.339 17.654 205.007 16.9543 204.706C16.2611 204.405 15.4467 204.165 14.5113 203.985C13.5758 203.798 12.5125 203.698 11.3211 203.684L11.0673 203.681C9.87593 203.667 8.81053 203.743 7.87107 203.908C6.93161 204.073 6.11187 204.301 5.41185 204.593C4.7054 204.878 4.1125 205.196 3.63315 205.549C3.14736 205.895 2.7657 206.245 2.48815 206.6L1.03947 206.037C1.29352 205.46 1.71358 204.885 2.29964 204.313C2.87926 203.733 3.60154 203.205 4.46648 202.726C5.3315 202.241 6.32559 201.856 7.44875 201.569C8.56541 201.282 9.78776 201.147 11.1158 201.162Z" fill="#D4D4D4"/>
</g>
<g id="x-marks">
<path id="x-m1" d="M72 473V479" stroke="#D4D4D4" stroke-width="3"/>
<path id="x-m2" d="M210 473V479" stroke="#D4D4D4" stroke-width="3"/>
<path id="x-m3" d="M354 473V479" stroke="#D4D4D4" stroke-width="3"/>
<path id="x-m4" d="M498 474V480" stroke="#D4D4D4" stroke-width="3"/>
</g>
<g id="y-marks">
<path id="y-m1" d="M48 452L42 452" stroke="#D4D4D4" stroke-width="3"/>
<path id="y-m2" d="M48 312L42 312" stroke="#D4D4D4" stroke-width="3"/>
<path id="y-m3" d="M47 167L41 167" stroke="#D4D4D4" stroke-width="3"/>
<path id="y-m4" d="M47 24L41 24" stroke="#D4D4D4" stroke-width="3"/>
</g>
<g id="x-numbers">
<path id="0" d="M76.5469 489.641V492.102C76.5469 493.169 76.4329 494.09 76.2051 494.865C75.9772 495.633 75.6484 496.265 75.2188 496.76C74.7956 497.248 74.291 497.609 73.7051 497.844C73.1191 498.078 72.4681 498.195 71.752 498.195C71.179 498.195 70.6452 498.124 70.1504 497.98C69.6556 497.831 69.2096 497.6 68.8125 497.287C68.4219 496.975 68.0833 496.581 67.7969 496.105C67.5169 495.624 67.3021 495.051 67.1523 494.387C67.0026 493.723 66.9277 492.961 66.9277 492.102V489.641C66.9277 488.573 67.0417 487.658 67.2695 486.896C67.5039 486.128 67.8327 485.5 68.2559 485.012C68.6855 484.523 69.1934 484.165 69.7793 483.938C70.3652 483.703 71.0163 483.586 71.7324 483.586C72.3053 483.586 72.8359 483.661 73.3242 483.811C73.819 483.954 74.265 484.178 74.6621 484.484C75.0592 484.79 75.3978 485.184 75.6777 485.666C75.9577 486.141 76.1725 486.711 76.3223 487.375C76.472 488.033 76.5469 488.788 76.5469 489.641ZM73.7246 492.473V489.26C73.7246 488.745 73.6953 488.296 73.6367 487.912C73.5846 487.528 73.5033 487.202 73.3926 486.936C73.2819 486.662 73.1452 486.441 72.9824 486.271C72.8197 486.102 72.6341 485.979 72.4258 485.9C72.2174 485.822 71.9863 485.783 71.7324 485.783C71.4134 485.783 71.1302 485.845 70.8828 485.969C70.6419 486.092 70.4368 486.291 70.2676 486.564C70.0983 486.831 69.9681 487.189 69.877 487.639C69.7923 488.081 69.75 488.622 69.75 489.26V492.473C69.75 492.987 69.776 493.439 69.8281 493.83C69.8867 494.221 69.9714 494.556 70.082 494.836C70.1992 495.109 70.3359 495.334 70.4922 495.51C70.6549 495.679 70.8405 495.803 71.0488 495.881C71.2637 495.959 71.498 495.998 71.752 495.998C72.0645 495.998 72.3411 495.936 72.582 495.812C72.8294 495.682 73.0378 495.48 73.207 495.207C73.3828 494.927 73.513 494.562 73.5977 494.113C73.6823 493.664 73.7246 493.117 73.7246 492.473Z" fill="#D4D4D4"/>
<path id="24" d="M209.703 495.803V498H199.977V496.125L204.576 491.193C205.038 490.679 205.403 490.227 205.67 489.836C205.937 489.439 206.129 489.084 206.246 488.771C206.37 488.452 206.432 488.15 206.432 487.863C206.432 487.434 206.36 487.066 206.217 486.76C206.074 486.447 205.862 486.206 205.582 486.037C205.309 485.868 204.97 485.783 204.566 485.783C204.137 485.783 203.766 485.887 203.453 486.096C203.147 486.304 202.913 486.594 202.75 486.965C202.594 487.336 202.516 487.756 202.516 488.225H199.693C199.693 487.378 199.895 486.604 200.299 485.9C200.702 485.191 201.272 484.628 202.008 484.211C202.743 483.788 203.616 483.576 204.625 483.576C205.621 483.576 206.461 483.739 207.145 484.064C207.835 484.383 208.355 484.846 208.707 485.451C209.065 486.05 209.244 486.766 209.244 487.6C209.244 488.068 209.169 488.527 209.02 488.977C208.87 489.419 208.655 489.862 208.375 490.305C208.102 490.741 207.77 491.184 207.379 491.633C206.988 492.082 206.555 492.548 206.08 493.029L203.609 495.803H209.703ZM221.422 492.688V494.895H211.178L211.041 493.186L216.969 483.781H219.205L216.783 487.834L213.834 492.688H221.422ZM219.811 483.781V498H216.998V483.781H219.811Z" fill="#D4D4D4"/>
<path id="48" d="M352.938 492.688V494.895H342.693L342.557 493.186L348.484 483.781H350.721L348.299 487.834L345.35 492.688H352.938ZM351.326 483.781V498H348.514V483.781H351.326ZM364.041 494.104C364.041 494.995 363.833 495.747 363.416 496.359C362.999 496.965 362.426 497.424 361.697 497.736C360.975 498.042 360.154 498.195 359.236 498.195C358.318 498.195 357.495 498.042 356.766 497.736C356.036 497.424 355.46 496.965 355.037 496.359C354.614 495.747 354.402 494.995 354.402 494.104C354.402 493.505 354.523 492.964 354.764 492.482C355.005 491.994 355.34 491.577 355.77 491.232C356.206 490.881 356.717 490.614 357.303 490.432C357.889 490.243 358.527 490.148 359.217 490.148C360.141 490.148 360.968 490.311 361.697 490.637C362.426 490.962 362.999 491.421 363.416 492.014C363.833 492.606 364.041 493.303 364.041 494.104ZM361.209 493.918C361.209 493.482 361.124 493.107 360.955 492.795C360.792 492.476 360.561 492.232 360.262 492.062C359.962 491.893 359.614 491.809 359.217 491.809C358.82 491.809 358.471 491.893 358.172 492.062C357.872 492.232 357.638 492.476 357.469 492.795C357.306 493.107 357.225 493.482 357.225 493.918C357.225 494.348 357.306 494.719 357.469 495.031C357.638 495.344 357.872 495.585 358.172 495.754C358.478 495.917 358.833 495.998 359.236 495.998C359.64 495.998 359.988 495.917 360.281 495.754C360.581 495.585 360.809 495.344 360.965 495.031C361.128 494.719 361.209 494.348 361.209 493.918ZM363.738 487.551C363.738 488.273 363.546 488.915 363.162 489.475C362.778 490.028 362.244 490.461 361.561 490.773C360.883 491.086 360.109 491.242 359.236 491.242C358.357 491.242 357.576 491.086 356.893 490.773C356.209 490.461 355.675 490.028 355.291 489.475C354.907 488.915 354.715 488.273 354.715 487.551C354.715 486.691 354.907 485.969 355.291 485.383C355.682 484.79 356.215 484.341 356.893 484.035C357.576 483.729 358.351 483.576 359.217 483.576C360.096 483.576 360.874 483.729 361.551 484.035C362.234 484.341 362.768 484.79 363.152 485.383C363.543 485.969 363.738 486.691 363.738 487.551ZM360.926 487.678C360.926 487.294 360.857 486.962 360.721 486.682C360.584 486.395 360.389 486.174 360.135 486.018C359.887 485.861 359.581 485.783 359.217 485.783C358.865 485.783 358.562 485.858 358.309 486.008C358.061 486.158 357.869 486.376 357.732 486.662C357.602 486.942 357.537 487.281 357.537 487.678C357.537 488.062 357.602 488.4 357.732 488.693C357.869 488.98 358.064 489.204 358.318 489.367C358.572 489.53 358.878 489.611 359.236 489.611C359.594 489.611 359.897 489.53 360.145 489.367C360.398 489.204 360.59 488.98 360.721 488.693C360.857 488.4 360.926 488.062 360.926 487.678Z" fill="#D4D4D4"/>
<path id="72" d="M496.635 483.781V485.295L491.137 498H488.168L493.666 485.979H486.586V483.781H496.635ZM508.188 495.803V498H498.461V496.125L503.061 491.193C503.523 490.679 503.887 490.227 504.154 489.836C504.421 489.439 504.613 489.084 504.73 488.771C504.854 488.452 504.916 488.15 504.916 487.863C504.916 487.434 504.844 487.066 504.701 486.76C504.558 486.447 504.346 486.206 504.066 486.037C503.793 485.868 503.454 485.783 503.051 485.783C502.621 485.783 502.25 485.887 501.938 486.096C501.632 486.304 501.397 486.594 501.234 486.965C501.078 487.336 501 487.756 501 488.225H498.178C498.178 487.378 498.38 486.604 498.783 485.9C499.187 485.191 499.757 484.628 500.492 484.211C501.228 483.788 502.1 483.576 503.109 483.576C504.105 483.576 504.945 483.739 505.629 484.064C506.319 484.383 506.84 484.846 507.191 485.451C507.549 486.05 507.729 486.766 507.729 487.6C507.729 488.068 507.654 488.527 507.504 488.977C507.354 489.419 507.139 489.862 506.859 490.305C506.586 490.741 506.254 491.184 505.863 491.633C505.473 492.082 505.04 492.548 504.564 493.029L502.094 495.803H508.188Z" fill="#D4D4D4"/>
</g>
<g id="y-numbers">
<path id="0_2" d="M38.5469 449.641V452.102C38.5469 453.169 38.4329 454.09 38.2051 454.865C37.9772 455.633 37.6484 456.265 37.2188 456.76C36.7956 457.248 36.291 457.609 35.7051 457.844C35.1191 458.078 34.4681 458.195 33.752 458.195C33.179 458.195 32.6452 458.124 32.1504 457.98C31.6556 457.831 31.2096 457.6 30.8125 457.287C30.4219 456.975 30.0833 456.581 29.7969 456.105C29.5169 455.624 29.3021 455.051 29.1523 454.387C29.0026 453.723 28.9277 452.961 28.9277 452.102V449.641C28.9277 448.573 29.0417 447.658 29.2695 446.896C29.5039 446.128 29.8327 445.5 30.2559 445.012C30.6855 444.523 31.1934 444.165 31.7793 443.938C32.3652 443.703 33.0163 443.586 33.7324 443.586C34.3053 443.586 34.8359 443.661 35.3242 443.811C35.819 443.954 36.265 444.178 36.6621 444.484C37.0592 444.79 37.3978 445.184 37.6777 445.666C37.9577 446.141 38.1725 446.711 38.3223 447.375C38.472 448.033 38.5469 448.788 38.5469 449.641ZM35.7246 452.473V449.26C35.7246 448.745 35.6953 448.296 35.6367 447.912C35.5846 447.528 35.5033 447.202 35.3926 446.936C35.2819 446.662 35.1452 446.441 34.9824 446.271C34.8197 446.102 34.6341 445.979 34.4258 445.9C34.2174 445.822 33.9863 445.783 33.7324 445.783C33.4134 445.783 33.1302 445.845 32.8828 445.969C32.6419 446.092 32.4368 446.291 32.2676 446.564C32.0983 446.831 31.9681 447.189 31.877 447.639C31.7923 448.081 31.75 448.622 31.75 449.26V452.473C31.75 452.987 31.776 453.439 31.8281 453.83C31.8867 454.221 31.9714 454.556 32.082 454.836C32.1992 455.109 32.3359 455.334 32.4922 455.51C32.6549 455.679 32.8405 455.803 33.0488 455.881C33.2637 455.959 33.498 455.998 33.752 455.998C34.0645 455.998 34.3411 455.936 34.582 455.812C34.8294 455.682 35.0378 455.48 35.207 455.207C35.3828 454.927 35.513 454.562 35.5977 454.113C35.6823 453.664 35.7246 453.117 35.7246 452.473Z" fill="#D4D4D4"/>
<path id="50" d="M20.623 311.525L18.377 310.988L19.1875 303.781H27.1758V306.057H21.502L21.1504 309.211C21.3392 309.1 21.6257 308.983 22.0098 308.859C22.3939 308.729 22.8236 308.664 23.2988 308.664C23.9889 308.664 24.6009 308.771 25.1348 308.986C25.6686 309.201 26.1211 309.514 26.4922 309.924C26.8698 310.334 27.1562 310.835 27.3516 311.428C27.5469 312.02 27.6445 312.691 27.6445 313.439C27.6445 314.071 27.5469 314.673 27.3516 315.246C27.1562 315.812 26.86 316.32 26.4629 316.77C26.0658 317.212 25.5677 317.561 24.9688 317.814C24.3698 318.068 23.6602 318.195 22.8398 318.195C22.2279 318.195 21.6354 318.104 21.0625 317.922C20.4961 317.74 19.985 317.469 19.5293 317.111C19.0801 316.753 18.7188 316.32 18.4453 315.812C18.1784 315.298 18.0384 314.712 18.0254 314.055H20.8184C20.8574 314.458 20.9616 314.807 21.1309 315.1C21.3066 315.386 21.5378 315.607 21.8242 315.764C22.1107 315.92 22.446 315.998 22.8301 315.998C23.1882 315.998 23.4941 315.93 23.748 315.793C24.002 315.656 24.207 315.467 24.3633 315.227C24.5195 314.979 24.6335 314.693 24.7051 314.367C24.7832 314.035 24.8223 313.677 24.8223 313.293C24.8223 312.909 24.7767 312.561 24.6855 312.248C24.5944 311.936 24.4544 311.665 24.2656 311.438C24.0768 311.21 23.8359 311.034 23.543 310.91C23.2565 310.786 22.9212 310.725 22.5371 310.725C22.0163 310.725 21.6126 310.806 21.3262 310.969C21.0462 311.132 20.8118 311.317 20.623 311.525ZM39.0312 309.641V312.102C39.0312 313.169 38.9173 314.09 38.6895 314.865C38.4616 315.633 38.1328 316.265 37.7031 316.76C37.2799 317.248 36.7754 317.609 36.1895 317.844C35.6035 318.078 34.9525 318.195 34.2363 318.195C33.6634 318.195 33.1296 318.124 32.6348 317.98C32.14 317.831 31.694 317.6 31.2969 317.287C30.9062 316.975 30.5677 316.581 30.2812 316.105C30.0013 315.624 29.7865 315.051 29.6367 314.387C29.487 313.723 29.4121 312.961 29.4121 312.102V309.641C29.4121 308.573 29.526 307.658 29.7539 306.896C29.9883 306.128 30.3171 305.5 30.7402 305.012C31.1699 304.523 31.6777 304.165 32.2637 303.938C32.8496 303.703 33.5007 303.586 34.2168 303.586C34.7897 303.586 35.3203 303.661 35.8086 303.811C36.3034 303.954 36.7493 304.178 37.1465 304.484C37.5436 304.79 37.8822 305.184 38.1621 305.666C38.4421 306.141 38.6569 306.711 38.8066 307.375C38.9564 308.033 39.0312 308.788 39.0312 309.641ZM36.209 312.473V309.26C36.209 308.745 36.1797 308.296 36.1211 307.912C36.069 307.528 35.9876 307.202 35.877 306.936C35.7663 306.662 35.6296 306.441 35.4668 306.271C35.304 306.102 35.1185 305.979 34.9102 305.9C34.7018 305.822 34.4707 305.783 34.2168 305.783C33.8978 305.783 33.6146 305.845 33.3672 305.969C33.1263 306.092 32.9212 306.291 32.752 306.564C32.5827 306.831 32.4525 307.189 32.3613 307.639C32.2767 308.081 32.2344 308.622 32.2344 309.26V312.473C32.2344 312.987 32.2604 313.439 32.3125 313.83C32.3711 314.221 32.4557 314.556 32.5664 314.836C32.6836 315.109 32.8203 315.334 32.9766 315.51C33.1393 315.679 33.3249 315.803 33.5332 315.881C33.748 315.959 33.9824 315.998 34.2363 315.998C34.5488 315.998 34.8255 315.936 35.0664 315.812C35.3138 315.682 35.5221 315.48 35.6914 315.207C35.8672 314.927 35.9974 314.562 36.082 314.113C36.1667 313.664 36.209 313.117 36.209 312.473Z" fill="#D4D4D4"/>
<path id="100" d="M12.832 159.752V174H10.0195V162.994L6.64062 164.068V161.852L12.5293 159.752H12.832ZM27.0312 165.641V168.102C27.0312 169.169 26.9173 170.09 26.6895 170.865C26.4616 171.633 26.1328 172.265 25.7031 172.76C25.2799 173.248 24.7754 173.609 24.1895 173.844C23.6035 174.078 22.9525 174.195 22.2363 174.195C21.6634 174.195 21.1296 174.124 20.6348 173.98C20.14 173.831 19.694 173.6 19.2969 173.287C18.9062 172.975 18.5677 172.581 18.2812 172.105C18.0013 171.624 17.7865 171.051 17.6367 170.387C17.487 169.723 17.4121 168.961 17.4121 168.102V165.641C17.4121 164.573 17.526 163.658 17.7539 162.896C17.9883 162.128 18.3171 161.5 18.7402 161.012C19.1699 160.523 19.6777 160.165 20.2637 159.938C20.8496 159.703 21.5007 159.586 22.2168 159.586C22.7897 159.586 23.3203 159.661 23.8086 159.811C24.3034 159.954 24.7493 160.178 25.1465 160.484C25.5436 160.79 25.8822 161.184 26.1621 161.666C26.4421 162.141 26.6569 162.711 26.8066 163.375C26.9564 164.033 27.0312 164.788 27.0312 165.641ZM24.209 168.473V165.26C24.209 164.745 24.1797 164.296 24.1211 163.912C24.069 163.528 23.9876 163.202 23.877 162.936C23.7663 162.662 23.6296 162.441 23.4668 162.271C23.304 162.102 23.1185 161.979 22.9102 161.9C22.7018 161.822 22.4707 161.783 22.2168 161.783C21.8978 161.783 21.6146 161.845 21.3672 161.969C21.1263 162.092 20.9212 162.291 20.752 162.564C20.5827 162.831 20.4525 163.189 20.3613 163.639C20.2767 164.081 20.2344 164.622 20.2344 165.26V168.473C20.2344 168.987 20.2604 169.439 20.3125 169.83C20.3711 170.221 20.4557 170.556 20.5664 170.836C20.6836 171.109 20.8203 171.334 20.9766 171.51C21.1393 171.679 21.3249 171.803 21.5332 171.881C21.748 171.959 21.9824 171.998 22.2363 171.998C22.5488 171.998 22.8255 171.936 23.0664 171.812C23.3138 171.682 23.5221 171.48 23.6914 171.207C23.8672 170.927 23.9974 170.562 24.082 170.113C24.1667 169.664 24.209 169.117 24.209 168.473ZM38.5156 165.641V168.102C38.5156 169.169 38.4017 170.09 38.1738 170.865C37.946 171.633 37.6172 172.265 37.1875 172.76C36.7643 173.248 36.2598 173.609 35.6738 173.844C35.0879 174.078 34.4368 174.195 33.7207 174.195C33.1478 174.195 32.6139 174.124 32.1191 173.98C31.6243 173.831 31.1784 173.6 30.7812 173.287C30.3906 172.975 30.0521 172.581 29.7656 172.105C29.4857 171.624 29.2708 171.051 29.1211 170.387C28.9714 169.723 28.8965 168.961 28.8965 168.102V165.641C28.8965 164.573 29.0104 163.658 29.2383 162.896C29.4727 162.128 29.8014 161.5 30.2246 161.012C30.6543 160.523 31.1621 160.165 31.748 159.938C32.334 159.703 32.985 159.586 33.7012 159.586C34.2741 159.586 34.8047 159.661 35.293 159.811C35.7878 159.954 36.2337 160.178 36.6309 160.484C37.028 160.79 37.3665 161.184 37.6465 161.666C37.9264 162.141 38.1413 162.711 38.291 163.375C38.4408 164.033 38.5156 164.788 38.5156 165.641ZM35.6934 168.473V165.26C35.6934 164.745 35.6641 164.296 35.6055 163.912C35.5534 163.528 35.472 163.202 35.3613 162.936C35.2507 162.662 35.1139 162.441 34.9512 162.271C34.7884 162.102 34.6029 161.979 34.3945 161.9C34.1862 161.822 33.9551 161.783 33.7012 161.783C33.3822 161.783 33.099 161.845 32.8516 161.969C32.6107 162.092 32.4056 162.291 32.2363 162.564C32.0671 162.831 31.9368 163.189 31.8457 163.639C31.7611 164.081 31.7188 164.622 31.7188 165.26V168.473C31.7188 168.987 31.7448 169.439 31.7969 169.83C31.8555 170.221 31.9401 170.556 32.0508 170.836C32.168 171.109 32.3047 171.334 32.4609 171.51C32.6237 171.679 32.8092 171.803 33.0176 171.881C33.2324 171.959 33.4668 171.998 33.7207 171.998C34.0332 171.998 34.3099 171.936 34.5508 171.812C34.7982 171.682 35.0065 171.48 35.1758 171.207C35.3516 170.927 35.4818 170.562 35.5664 170.113C35.651 169.664 35.6934 169.117 35.6934 168.473Z" fill="#D4D4D4"/>
<path id="150" d="M12.832 16.752V31H10.0195V19.9941L6.64062 21.0684V18.8516L12.5293 16.752H12.832ZM20.1074 24.5254L17.8613 23.9883L18.6719 16.7812H26.6602V19.0566H20.9863L20.6348 22.2109C20.8236 22.1003 21.11 21.9831 21.4941 21.8594C21.8783 21.7292 22.3079 21.6641 22.7832 21.6641C23.4733 21.6641 24.0853 21.7715 24.6191 21.9863C25.153 22.2012 25.6055 22.5137 25.9766 22.9238C26.3542 23.334 26.6406 23.8353 26.8359 24.4277C27.0312 25.0202 27.1289 25.6908 27.1289 26.4395C27.1289 27.071 27.0312 27.6732 26.8359 28.2461C26.6406 28.8125 26.3444 29.3203 25.9473 29.7695C25.5501 30.2122 25.0521 30.5605 24.4531 30.8145C23.8542 31.0684 23.1445 31.1953 22.3242 31.1953C21.7122 31.1953 21.1198 31.1042 20.5469 30.9219C19.9805 30.7396 19.4694 30.4694 19.0137 30.1113C18.5645 29.7533 18.2031 29.3203 17.9297 28.8125C17.6628 28.2982 17.5228 27.7122 17.5098 27.0547H20.3027C20.3418 27.4583 20.446 27.8066 20.6152 28.0996C20.791 28.3861 21.0221 28.6074 21.3086 28.7637C21.5951 28.9199 21.9303 28.998 22.3145 28.998C22.6725 28.998 22.9785 28.9297 23.2324 28.793C23.4863 28.6562 23.6914 28.4674 23.8477 28.2266C24.0039 27.9792 24.1178 27.6927 24.1895 27.3672C24.2676 27.0352 24.3066 26.6771 24.3066 26.293C24.3066 25.9089 24.2611 25.5605 24.1699 25.248C24.0788 24.9355 23.9388 24.6654 23.75 24.4375C23.5612 24.2096 23.3203 24.0339 23.0273 23.9102C22.7409 23.7865 22.4056 23.7246 22.0215 23.7246C21.5007 23.7246 21.097 23.806 20.8105 23.9688C20.5306 24.1315 20.2962 24.3171 20.1074 24.5254ZM38.5156 22.6406V25.1016C38.5156 26.1693 38.4017 27.0905 38.1738 27.8652C37.946 28.6335 37.6172 29.265 37.1875 29.7598C36.7643 30.248 36.2598 30.6094 35.6738 30.8438C35.0879 31.0781 34.4368 31.1953 33.7207 31.1953C33.1478 31.1953 32.6139 31.1237 32.1191 30.9805C31.6243 30.8307 31.1784 30.5996 30.7812 30.2871C30.3906 29.9746 30.0521 29.5807 29.7656 29.1055C29.4857 28.6237 29.2708 28.0508 29.1211 27.3867C28.9714 26.7227 28.8965 25.9609 28.8965 25.1016V22.6406C28.8965 21.5729 29.0104 20.6582 29.2383 19.8965C29.4727 19.1283 29.8014 18.5 30.2246 18.0117C30.6543 17.5234 31.1621 17.1654 31.748 16.9375C32.334 16.7031 32.985 16.5859 33.7012 16.5859C34.2741 16.5859 34.8047 16.6608 35.293 16.8105C35.7878 16.9538 36.2337 17.1784 36.6309 17.4844C37.028 17.7904 37.3665 18.1842 37.6465 18.666C37.9264 19.1413 38.1413 19.7109 38.291 20.375C38.4408 21.0326 38.5156 21.7878 38.5156 22.6406ZM35.6934 25.4727V22.2598C35.6934 21.7454 35.6641 21.2962 35.6055 20.9121C35.5534 20.528 35.472 20.2025 35.3613 19.9355C35.2507 19.6621 35.1139 19.4408 34.9512 19.2715C34.7884 19.1022 34.6029 18.9785 34.3945 18.9004C34.1862 18.8223 33.9551 18.7832 33.7012 18.7832C33.3822 18.7832 33.099 18.8451 32.8516 18.9688C32.6107 19.0924 32.4056 19.291 32.2363 19.5645C32.0671 19.8314 31.9368 20.1895 31.8457 20.6387C31.7611 21.0814 31.7188 21.6217 31.7188 22.2598V25.4727C31.7188 25.987 31.7448 26.4395 31.7969 26.8301C31.8555 27.2207 31.9401 27.556 32.0508 27.8359C32.168 28.1094 32.3047 28.334 32.4609 28.5098C32.6237 28.679 32.8092 28.8027 33.0176 28.8809C33.2324 28.959 33.4668 28.998 33.7207 28.998C34.0332 28.998 34.3099 28.9362 34.5508 28.8125C34.7982 28.6823 35.0065 28.4805 35.1758 28.207C35.3516 27.9271 35.4818 27.5625 35.5664 27.1133C35.651 26.6641 35.6934 26.1172 35.6934 25.4727Z" fill="#D4D4D4"/>
</g>
<path id="auc" d="M77 446.008C77 446.008 77.9541 395.807 78.883 368.821C79.8119 341.836 81.5029 310.161 82.6489 284.105C83.795 258.048 84.3253 234.972 85.7656 212.482C87.2059 189.993 89.6022 163.918 91 148.508C92.3978 133.098 92.7186 129.055 93.9468 120.005C95.175 110.955 96.8943 102.012 98.3404 94.9039C99.7865 87.7959 100.625 82.4674 102.42 77.3329C104.215 72.1985 106.233 66.7187 108.697 64.1547C111.161 61.5908 112.36 60.9137 115.5 61.0085C118.64 61.1033 121.315 63.9163 125.016 67.2924C128.717 70.6685 131.609 75.6852 135.686 81.7257C139.764 87.7661 144.107 95.5495 149 104.008C153.893 112.467 158.682 122.119 164.872 132.556C171.063 142.992 178.052 154.269 186 166.508C193.947 178.747 202.813 192.448 212.574 205.977C222.335 219.505 233.147 233.234 245.212 247.08C257.277 260.926 268.684 274.22 285.069 288.811C301.453 303.403 324.464 320.595 344.069 333.366C363.673 346.136 377.249 353.473 401.5 364.508C425.75 375.543 490 397.374 490 397.374L489.897 446.621L77 446.008Z" fill="#E3ECFB"/>
<path id="plot" d="M77 444C77 444 77.9541 393.799 78.883 366.813C79.8118 339.828 81.5029 308.153 82.6489 282.097C83.795 256.04 84.3252 232.964 85.7656 210.474C87.2059 187.985 89.6022 161.91 91 146.5C92.3978 131.09 92.7186 127.047 93.9468 117.997C95.175 108.946 96.8943 100.003 98.3404 92.8954C99.7866 85.7874 100.625 80.4588 102.42 75.3244C104.215 70.19 106.233 64.7102 108.697 62.1462C111.161 59.5823 112.86 59.9052 116 60C119.14 60.0948 121.315 61.9078 125.016 65.2839C128.717 68.66 131.609 73.6767 135.686 79.7172C139.764 85.7576 144.107 93.541 149 102C153.893 110.459 158.682 120.111 164.872 130.547C171.063 140.984 178.053 152.261 186 164.5C193.947 176.739 202.813 190.44 212.574 203.969C222.335 217.497 233.148 231.226 245.213 245.072C257.278 258.918 268.685 272.212 285.069 286.803C301.453 301.395 324.465 318.587 344.069 331.358C363.673 344.128 377.249 351.465 401.5 362.5C425.751 373.535 490 395.366 490 395.366" stroke="#4D96E3" stroke-width="3" stroke-miterlimit="30"/>
<g id="dots">
<circle id="d1" cx="76" cy="447" r="3.25" fill="#4D96E3" stroke="#185EB1" stroke-width="1.5"/>
<circle id="d2" cx="81" cy="372" r="3.25" fill="#4D96E3" stroke="#185EB1" stroke-width="1.5"/>
<circle id="d3" cx="81" cy="312" r="3.25" fill="#4D96E3" stroke="#185EB1" stroke-width="1.5"/>
<circle id="d4" cx="85" cy="258" r="3.25" fill="#4D96E3" stroke="#185EB1" stroke-width="1.5"/>
<circle id="d5" cx="85" cy="209" r="3.25" fill="#4D96E3" stroke="#185EB1" stroke-width="1.5"/>
<circle id="d6" cx="89" cy="159" r="3.25" fill="#4D96E3" stroke="#185EB1" stroke-width="1.5"/>
<circle id="d7" cx="95" cy="113" r="3.25" fill="#4D96E3" stroke="#185EB1" stroke-width="1.5"/>
<circle id="d8" cx="99" cy="87" r="3.25" fill="#4D96E3" stroke="#185EB1" stroke-width="1.5"/>
<circle id="d9" cx="105" cy="70" r="3.25" fill="#4D96E3" stroke="#185EB1" stroke-width="1.5"/>
<circle id="d10" cx="115" cy="59" r="3.25" fill="#4D96E3" stroke="#185EB1" stroke-width="1.5"/>
<circle id="d11" cx="129" cy="70" r="3.25" fill="#4D96E3" stroke="#185EB1" stroke-width="1.5"/>
<circle id="d12" cx="147" cy="98" r="3.25" fill="#4D96E3" stroke="#185EB1" stroke-width="1.5"/>
<circle id="d13" cx="175" cy="147" r="3.25" fill="#4D96E3" stroke="#185EB1" stroke-width="1.5"/>
<circle id="d14" cx="207" cy="195" r="3.25" fill="#4D96E3" stroke="#185EB1" stroke-width="1.5"/>
<circle id="d15" cx="238" cy="237" r="3.25" fill="#4D96E3" stroke="#185EB1" stroke-width="1.5"/>
<circle id="d16" cx="280" cy="283" r="3.25" fill="#4D96E3" stroke="#185EB1" stroke-width="1.5"/>
<circle id="d17" cx="335" cy="324" r="3.25" fill="#4D96E3" stroke="#185EB1" stroke-width="1.5"/>
<circle id="d18" cx="411" cy="368" r="3.25" fill="#4D96E3" stroke="#185EB1" stroke-width="1.5"/>
<circle id="d19" cx="486" cy="394" r="3.25" fill="#4D96E3" stroke="#185EB1" stroke-width="1.5"/>
</g>
<path id="AUC" d="M202.461 363.855L197.82 378H194.082L200.422 360.938H202.801L202.461 363.855ZM206.316 378L201.664 363.855L201.289 360.938H203.691L210.066 378H206.316ZM206.105 371.648V374.402H197.094V371.648H206.105ZM220.859 360.938H224.363V372.211C224.363 373.523 224.082 374.629 223.52 375.527C222.965 376.426 222.195 377.102 221.211 377.555C220.234 378.008 219.109 378.234 217.836 378.234C216.562 378.234 215.43 378.008 214.438 377.555C213.453 377.102 212.68 376.426 212.117 375.527C211.562 374.629 211.285 373.523 211.285 372.211V360.938H214.801V372.211C214.801 372.977 214.922 373.602 215.164 374.086C215.406 374.57 215.754 374.926 216.207 375.152C216.668 375.379 217.211 375.492 217.836 375.492C218.477 375.492 219.02 375.379 219.465 375.152C219.918 374.926 220.262 374.57 220.496 374.086C220.738 373.602 220.859 372.977 220.859 372.211V360.938ZM237.148 372.34H240.652C240.582 373.488 240.266 374.508 239.703 375.398C239.148 376.289 238.371 376.984 237.371 377.484C236.379 377.984 235.184 378.234 233.785 378.234C232.691 378.234 231.711 378.047 230.844 377.672C229.977 377.289 229.234 376.742 228.617 376.031C228.008 375.32 227.543 374.461 227.223 373.453C226.902 372.445 226.742 371.316 226.742 370.066V368.883C226.742 367.633 226.906 366.504 227.234 365.496C227.57 364.48 228.047 363.617 228.664 362.906C229.289 362.195 230.035 361.648 230.902 361.266C231.77 360.883 232.738 360.691 233.809 360.691C235.23 360.691 236.43 360.949 237.406 361.465C238.391 361.98 239.152 362.691 239.691 363.598C240.238 364.504 240.566 365.535 240.676 366.691H237.16C237.121 366.004 236.984 365.422 236.75 364.945C236.516 364.461 236.16 364.098 235.684 363.855C235.215 363.605 234.59 363.48 233.809 363.48C233.223 363.48 232.711 363.59 232.273 363.809C231.836 364.027 231.469 364.359 231.172 364.805C230.875 365.25 230.652 365.812 230.504 366.492C230.363 367.164 230.293 367.953 230.293 368.859V370.066C230.293 370.949 230.359 371.727 230.492 372.398C230.625 373.062 230.828 373.625 231.102 374.086C231.383 374.539 231.742 374.883 232.18 375.117C232.625 375.344 233.16 375.457 233.785 375.457C234.52 375.457 235.125 375.34 235.602 375.105C236.078 374.871 236.441 374.523 236.691 374.062C236.949 373.602 237.102 373.027 237.148 372.34Z" fill="#4D96E3"/>
<path id="Cmax" d="M65.4141 44.3398H68.918C68.8477 45.4883 68.5312 46.5078 67.9688 47.3984C67.4141 48.2891 66.6367 48.9844 65.6367 49.4844C64.6445 49.9844 63.4492 50.2344 62.0508 50.2344C60.957 50.2344 59.9766 50.0469 59.1094 49.6719C58.2422 49.2891 57.5 48.7422 56.8828 48.0312C56.2734 47.3203 55.8086 46.4609 55.4883 45.4531C55.168 44.4453 55.0078 43.3164 55.0078 42.0664V40.8828C55.0078 39.6328 55.1719 38.5039 55.5 37.4961C55.8359 36.4805 56.3125 35.6172 56.9297 34.9062C57.5547 34.1953 58.3008 33.6484 59.168 33.2656C60.0352 32.8828 61.0039 32.6914 62.0742 32.6914C63.4961 32.6914 64.6953 32.9492 65.6719 33.4648C66.6562 33.9805 67.418 34.6914 67.957 35.5977C68.5039 36.5039 68.832 37.5352 68.9414 38.6914H65.4258C65.3867 38.0039 65.25 37.4219 65.0156 36.9453C64.7812 36.4609 64.4258 36.0977 63.9492 35.8555C63.4805 35.6055 62.8555 35.4805 62.0742 35.4805C61.4883 35.4805 60.9766 35.5898 60.5391 35.8086C60.1016 36.0273 59.7344 36.3594 59.4375 36.8047C59.1406 37.25 58.918 37.8125 58.7695 38.4922C58.6289 39.1641 58.5586 39.9531 58.5586 40.8594V42.0664C58.5586 42.9492 58.625 43.7266 58.7578 44.3984C58.8906 45.0625 59.0938 45.625 59.3672 46.0859C59.6484 46.5391 60.0078 46.8828 60.4453 47.1172C60.8906 47.3438 61.4258 47.457 62.0508 47.457C62.7852 47.457 63.3906 47.3398 63.8672 47.1055C64.3438 46.8711 64.707 46.5234 64.957 46.0625C65.2148 45.6016 65.3672 45.0273 65.4141 44.3398ZM73.6094 41.6211V50H70.7871V39.4336H73.4336L73.6094 41.6211ZM73.2188 44.3457H72.4375C72.4375 43.61 72.5254 42.9329 72.7012 42.3145C72.8835 41.6895 73.1471 41.1491 73.4922 40.6934C73.8438 40.2311 74.2767 39.873 74.791 39.6191C75.3053 39.3652 75.901 39.2383 76.5781 39.2383C77.0469 39.2383 77.4766 39.3099 77.8672 39.4531C78.2578 39.5898 78.5931 39.8079 78.873 40.1074C79.1595 40.4004 79.3809 40.7845 79.5371 41.2598C79.6934 41.7285 79.7715 42.2917 79.7715 42.9492V50H76.959V43.2617C76.959 42.7799 76.8939 42.4089 76.7637 42.1484C76.6335 41.888 76.4479 41.7057 76.207 41.6016C75.9727 41.4974 75.6895 41.4453 75.3574 41.4453C74.9928 41.4453 74.6738 41.5202 74.4004 41.6699C74.1335 41.8197 73.9121 42.028 73.7363 42.2949C73.5605 42.5553 73.4303 42.8613 73.3457 43.2129C73.2611 43.5645 73.2188 43.9421 73.2188 44.3457ZM79.5078 44.0234L78.502 44.1504C78.502 43.4603 78.5866 42.819 78.7559 42.2266C78.9316 41.6341 79.1888 41.1133 79.5273 40.6641C79.8724 40.2148 80.2988 39.8665 80.8066 39.6191C81.3145 39.3652 81.9004 39.2383 82.5645 39.2383C83.0723 39.2383 83.5345 39.3132 83.9512 39.4629C84.3678 39.6061 84.7227 39.8372 85.0156 40.1562C85.3151 40.4688 85.543 40.8789 85.6992 41.3867C85.862 41.8945 85.9434 42.5163 85.9434 43.252V50H83.1211V43.252C83.1211 42.7637 83.056 42.3926 82.9258 42.1387C82.8021 41.8783 82.6198 41.6992 82.3789 41.6016C82.1445 41.4974 81.8646 41.4453 81.5391 41.4453C81.2005 41.4453 80.9043 41.5137 80.6504 41.6504C80.3965 41.7806 80.1849 41.9629 80.0156 42.1973C79.8464 42.4316 79.7194 42.7051 79.6348 43.0176C79.5501 43.3236 79.5078 43.6589 79.5078 44.0234ZM93.8242 47.6172V42.9102C93.8242 42.5716 93.7689 42.2819 93.6582 42.041C93.5475 41.7936 93.375 41.6016 93.1406 41.4648C92.9128 41.3281 92.6165 41.2598 92.252 41.2598C91.9395 41.2598 91.6693 41.3151 91.4414 41.4258C91.2135 41.5299 91.0378 41.6829 90.9141 41.8848C90.7904 42.0801 90.7285 42.3112 90.7285 42.5781H87.916C87.916 42.1289 88.0202 41.7025 88.2285 41.2988C88.4368 40.8952 88.7396 40.5404 89.1367 40.2344C89.5339 39.9219 90.0059 39.6777 90.5527 39.502C91.1061 39.3262 91.7246 39.2383 92.4082 39.2383C93.2285 39.2383 93.9577 39.375 94.5957 39.6484C95.2337 39.9219 95.735 40.332 96.0996 40.8789C96.4707 41.4258 96.6562 42.1094 96.6562 42.9297V47.4512C96.6562 48.0306 96.6921 48.5059 96.7637 48.877C96.8353 49.2415 96.9395 49.5605 97.0762 49.834V50H94.2344C94.0977 49.7135 93.9935 49.3555 93.9219 48.9258C93.8568 48.4896 93.8242 48.0534 93.8242 47.6172ZM94.1953 43.5645L94.2148 45.1562H92.6426C92.2715 45.1562 91.9492 45.1986 91.6758 45.2832C91.4023 45.3678 91.1777 45.4883 91.002 45.6445C90.8262 45.7943 90.696 45.9701 90.6113 46.1719C90.5332 46.3737 90.4941 46.5951 90.4941 46.8359C90.4941 47.0768 90.5495 47.2949 90.6602 47.4902C90.7708 47.679 90.9303 47.8288 91.1387 47.9395C91.347 48.0436 91.5911 48.0957 91.8711 48.0957C92.2943 48.0957 92.6621 48.0111 92.9746 47.8418C93.2871 47.6725 93.528 47.4642 93.6973 47.2168C93.873 46.9694 93.9642 46.735 93.9707 46.5137L94.7129 47.7051C94.6087 47.972 94.4655 48.2487 94.2832 48.5352C94.1074 48.8216 93.8828 49.0918 93.6094 49.3457C93.3359 49.5931 93.0072 49.7982 92.623 49.9609C92.2389 50.1172 91.7832 50.1953 91.2559 50.1953C90.5853 50.1953 89.9766 50.0618 89.4297 49.7949C88.8893 49.5215 88.4596 49.1471 88.1406 48.6719C87.8281 48.1901 87.6719 47.6432 87.6719 47.0312C87.6719 46.4779 87.776 45.9863 87.9844 45.5566C88.1927 45.127 88.4987 44.7656 88.9023 44.4727C89.3125 44.1732 89.8236 43.9486 90.4355 43.7988C91.0475 43.6426 91.7572 43.5645 92.5645 43.5645H94.1953ZM101.09 39.4336L102.838 42.6465L104.635 39.4336H107.633L104.645 44.5996L107.77 50H104.762L102.857 46.6016L100.953 50H97.9453L101.07 44.5996L98.082 39.4336H101.09Z" fill="#4D96E3"/>
<g id="tmax">
<path d="M116.523 9.32031V11.7109H109.141V9.32031H116.523ZM110.969 6.19141H114.344V18.1797C114.344 18.5469 114.391 18.8281 114.484 19.0234C114.586 19.2188 114.734 19.3555 114.93 19.4336C115.125 19.5039 115.371 19.5391 115.668 19.5391C115.879 19.5391 116.066 19.5312 116.23 19.5156C116.402 19.4922 116.547 19.4688 116.664 19.4453L116.676 21.9297C116.387 22.0234 116.074 22.0977 115.738 22.1523C115.402 22.207 115.031 22.2344 114.625 22.2344C113.883 22.2344 113.234 22.1133 112.68 21.8711C112.133 21.6211 111.711 21.2227 111.414 20.6758C111.117 20.1289 110.969 19.4102 110.969 18.5195V6.19141ZM121.039 13.6211V22H118.217V11.4336H120.863L121.039 13.6211ZM120.648 16.3457H119.867C119.867 15.61 119.955 14.9329 120.131 14.3145C120.313 13.6895 120.577 13.1491 120.922 12.6934C121.273 12.2311 121.706 11.873 122.221 11.6191C122.735 11.3652 123.331 11.2383 124.008 11.2383C124.477 11.2383 124.906 11.3099 125.297 11.4531C125.688 11.5898 126.023 11.8079 126.303 12.1074C126.589 12.4004 126.811 12.7845 126.967 13.2598C127.123 13.7285 127.201 14.2917 127.201 14.9492V22H124.389V15.2617C124.389 14.7799 124.324 14.4089 124.193 14.1484C124.063 13.888 123.878 13.7057 123.637 13.6016C123.402 13.4974 123.119 13.4453 122.787 13.4453C122.423 13.4453 122.104 13.5202 121.83 13.6699C121.563 13.8197 121.342 14.028 121.166 14.2949C120.99 14.5553 120.86 14.8613 120.775 15.2129C120.691 15.5645 120.648 15.9421 120.648 16.3457ZM126.938 16.0234L125.932 16.1504C125.932 15.4603 126.016 14.819 126.186 14.2266C126.361 13.6341 126.618 13.1133 126.957 12.6641C127.302 12.2148 127.729 11.8665 128.236 11.6191C128.744 11.3652 129.33 11.2383 129.994 11.2383C130.502 11.2383 130.964 11.3132 131.381 11.4629C131.798 11.6061 132.152 11.8372 132.445 12.1562C132.745 12.4688 132.973 12.8789 133.129 13.3867C133.292 13.8945 133.373 14.5163 133.373 15.252V22H130.551V15.252C130.551 14.7637 130.486 14.3926 130.355 14.1387C130.232 13.8783 130.049 13.6992 129.809 13.6016C129.574 13.4974 129.294 13.4453 128.969 13.4453C128.63 13.4453 128.334 13.5137 128.08 13.6504C127.826 13.7806 127.615 13.9629 127.445 14.1973C127.276 14.4316 127.149 14.7051 127.064 15.0176C126.98 15.3236 126.938 15.6589 126.938 16.0234ZM141.254 19.6172V14.9102C141.254 14.5716 141.199 14.2819 141.088 14.041C140.977 13.7936 140.805 13.6016 140.57 13.4648C140.342 13.3281 140.046 13.2598 139.682 13.2598C139.369 13.2598 139.099 13.3151 138.871 13.4258C138.643 13.5299 138.467 13.6829 138.344 13.8848C138.22 14.0801 138.158 14.3112 138.158 14.5781H135.346C135.346 14.1289 135.45 13.7025 135.658 13.2988C135.867 12.8952 136.169 12.5404 136.566 12.2344C136.964 11.9219 137.436 11.6777 137.982 11.502C138.536 11.3262 139.154 11.2383 139.838 11.2383C140.658 11.2383 141.387 11.375 142.025 11.6484C142.663 11.9219 143.165 12.332 143.529 12.8789C143.9 13.4258 144.086 14.1094 144.086 14.9297V19.4512C144.086 20.0306 144.122 20.5059 144.193 20.877C144.265 21.2415 144.369 21.5605 144.506 21.834V22H141.664C141.527 21.7135 141.423 21.3555 141.352 20.9258C141.286 20.4896 141.254 20.0534 141.254 19.6172ZM141.625 15.5645L141.645 17.1562H140.072C139.701 17.1562 139.379 17.1986 139.105 17.2832C138.832 17.3678 138.607 17.4883 138.432 17.6445C138.256 17.7943 138.126 17.9701 138.041 18.1719C137.963 18.3737 137.924 18.5951 137.924 18.8359C137.924 19.0768 137.979 19.2949 138.09 19.4902C138.201 19.679 138.36 19.8288 138.568 19.9395C138.777 20.0436 139.021 20.0957 139.301 20.0957C139.724 20.0957 140.092 20.0111 140.404 19.8418C140.717 19.6725 140.958 19.4642 141.127 19.2168C141.303 18.9694 141.394 18.735 141.4 18.5137L142.143 19.7051C142.038 19.972 141.895 20.2487 141.713 20.5352C141.537 20.8216 141.312 21.0918 141.039 21.3457C140.766 21.5931 140.437 21.7982 140.053 21.9609C139.669 22.1172 139.213 22.1953 138.686 22.1953C138.015 22.1953 137.406 22.0618 136.859 21.7949C136.319 21.5215 135.889 21.1471 135.57 20.6719C135.258 20.1901 135.102 19.6432 135.102 19.0312C135.102 18.4779 135.206 17.9863 135.414 17.5566C135.622 17.127 135.928 16.7656 136.332 16.4727C136.742 16.1732 137.253 15.9486 137.865 15.7988C138.477 15.6426 139.187 15.5645 139.994 15.5645H141.625ZM148.52 11.4336L150.268 14.6465L152.064 11.4336H155.062L152.074 16.5996L155.199 22H152.191L150.287 18.6016L148.383 22H145.375L148.5 16.5996L145.512 11.4336H148.52Z" fill="#4D96E3"/>
</g>
<g id="t1/2">
<path d="M241.523 144.32V146.711H234.141V144.32H241.523ZM235.969 141.191H239.344V153.18C239.344 153.547 239.391 153.828 239.484 154.023C239.586 154.219 239.734 154.355 239.93 154.434C240.125 154.504 240.371 154.539 240.668 154.539C240.879 154.539 241.066 154.531 241.23 154.516C241.402 154.492 241.547 154.469 241.664 154.445L241.676 156.93C241.387 157.023 241.074 157.098 240.738 157.152C240.402 157.207 240.031 157.234 239.625 157.234C238.883 157.234 238.234 157.113 237.68 156.871C237.133 156.621 236.711 156.223 236.414 155.676C236.117 155.129 235.969 154.41 235.969 153.52V141.191ZM249.965 142.752V157H247.152V145.994L243.773 147.068V144.852L249.662 142.752H249.965ZM260.785 142.781L255.57 158.221H253.48L258.695 142.781H260.785ZM271.742 154.803V157H262.016V155.125L266.615 150.193C267.077 149.679 267.442 149.227 267.709 148.836C267.976 148.439 268.168 148.084 268.285 147.771C268.409 147.452 268.471 147.15 268.471 146.863C268.471 146.434 268.399 146.066 268.256 145.76C268.113 145.447 267.901 145.206 267.621 145.037C267.348 144.868 267.009 144.783 266.605 144.783C266.176 144.783 265.805 144.887 265.492 145.096C265.186 145.304 264.952 145.594 264.789 145.965C264.633 146.336 264.555 146.756 264.555 147.225H261.732C261.732 146.378 261.934 145.604 262.338 144.9C262.742 144.191 263.311 143.628 264.047 143.211C264.783 142.788 265.655 142.576 266.664 142.576C267.66 142.576 268.5 142.739 269.184 143.064C269.874 143.383 270.395 143.846 270.746 144.451C271.104 145.05 271.283 145.766 271.283 146.6C271.283 147.068 271.208 147.527 271.059 147.977C270.909 148.419 270.694 148.862 270.414 149.305C270.141 149.741 269.809 150.184 269.418 150.633C269.027 151.082 268.594 151.548 268.119 152.029L265.648 154.803H271.742Z" fill="#4D96E3"/>
</g>
<path id="t1/2-hline" d="M190.293 166.293C189.902 166.683 189.902 167.317 190.293 167.707L196.657 174.071C197.047 174.462 197.681 174.462 198.071 174.071C198.462 173.681 198.462 173.047 198.071 172.657L192.414 167L198.071 161.343C198.462 160.953 198.462 160.319 198.071 159.929C197.681 159.538 197.047 159.538 196.657 159.929L190.293 166.293ZM321.707 167.707C322.098 167.317 322.098 166.683 321.707 166.293L315.343 159.929C314.953 159.538 314.319 159.538 313.929 159.929C313.538 160.319 313.538 160.953 313.929 161.343L319.586 167L313.929 172.657C313.538 173.047 313.538 173.681 313.929 174.071C314.319 174.462 314.953 174.462 315.343 174.071L321.707 167.707ZM191 168H321V166H191V168Z" fill="#D4D4D4"/>
<line id="t1/2-vline" x1="322" y1="169" x2="322" y2="312" stroke="#D4D4D4" stroke-width="2" stroke-dasharray="2 2"/>
<line id="tmax-vline" x1="115" y1="30" x2="115" y2="53" stroke="#D4D4D4" stroke-width="2" stroke-dasharray="2 2"/>
<line id="cmax-hline" x1="110" y1="56" x2="63" y2="56" stroke="#D4D4D4" stroke-width="2" stroke-dasharray="2 2"/>
</g>
<defs>
<clipPath id="clip0_1_2">
<rect width="512" height="512" fill="white"/>
</clipPath>
</defs>
</svg>
