<?xml version="1.0" encoding="UTF-8" standalone="no"?>
<svg
   width="415"
   height="387"
   viewBox="0 0 415 387"
   fill="none"
   version="1.1"
   id="svg11920"
   sodipodi:docname="profile_fill.svg"
   inkscape:version="1.2.2 (b0a84865, 2022-12-01)"
   xmlns:inkscape="http://www.inkscape.org/namespaces/inkscape"
   xmlns:sodipodi="http://sodipodi.sourceforge.net/DTD/sodipodi-0.dtd"
   xmlns="http://www.w3.org/2000/svg"
   xmlns:svg="http://www.w3.org/2000/svg">
  <defs
     id="defs11924" />
  <sodipodi:namedview
     id="namedview11922"
     pagecolor="#ffffff"
     bordercolor="#000000"
     borderopacity="0.25"
     inkscape:showpageshadow="2"
     inkscape:pageopacity="0.0"
     inkscape:pagecheckerboard="0"
     inkscape:deskcolor="#d1d1d1"
     showgrid="false"
     inkscape:zoom="1.7248289"
     inkscape:cx="204.36809"
     inkscape:cy="351.33919"
     inkscape:window-width="1512"
     inkscape:window-height="916"
     inkscape:window-x="0"
     inkscape:window-y="38"
     inkscape:window-maximized="1"
     inkscape:current-layer="svg11920" />
  <path
     d="m 0.765589,386.5 c 0,0 0.954101,-50.201 1.882981,-77.187 0.92887,-26.985 2.61987,-58.66 3.76595,-84.716 C 7.5606,198.54 8.09084,175.464 9.53118,152.974 10.9715,130.485 13.3678,104.41 14.7656,89 c 1.3978,-15.4101 1.7186,-19.453 2.9468,-28.5033 1.2282,-9.0503 2.9475,-17.9934 4.3936,-25.1013 1.4461,-7.108 2.2848,-12.4365 4.0798,-17.571 1.795,-5.1344 3.8128,-10.61419 6.2766,-13.17814 2.4637,-2.56396 3.6633,-3.24107 6.8032,-3.14625 3.1399,0.09481 5.8146,2.90781 9.5159,6.28391 3.7014,3.37608 6.5927,8.39278 10.6703,14.43328 4.0775,6.0404 8.4206,13.8238 13.3138,22.2828 4.8932,8.459 9.6818,18.1108 15.8723,28.5473 6.1906,10.4365 13.1801,21.7136 21.1281,33.9527 7.947,12.239 16.813,25.94 26.574,39.469 9.761,13.528 20.573,27.257 32.638,41.103 12.065,13.846 23.472,27.14 39.857,41.731 16.384,14.592 39.395,31.784 59,44.555 19.604,12.77 33.18,20.107 57.431,31.142 24.25,11.035 88.5,32.866 88.5,32.866 l -0.10293,49.24701 z"
     fill="#d9d9d9"
     stroke="#000000"
     stroke-miterlimit="30"
     id="path11918"
     sodipodi:nodetypes="csscssccccccscccscccccc" />
</svg>
