<?xml version="1.0" encoding="UTF-8" standalone="no"?>
<!-- Created with Inkscape (http://www.inkscape.org/) -->

<svg
   width="210mm"
   height="297mm"
   viewBox="0 0 210 297"
   version="1.1"
   id="svg3265"
   xml:space="preserve"
   inkscape:version="1.2.2 (b0a84865, 2022-12-01)"
   sodipodi:docname="profile.svg"
   xmlns:inkscape="http://www.inkscape.org/namespaces/inkscape"
   xmlns:sodipodi="http://sodipodi.sourceforge.net/DTD/sodipodi-0.dtd"
   xmlns="http://www.w3.org/2000/svg"
   xmlns:svg="http://www.w3.org/2000/svg"><sodipodi:namedview
     id="namedview3267"
     pagecolor="#ffffff"
     bordercolor="#000000"
     borderopacity="0.25"
     inkscape:showpageshadow="2"
     inkscape:pageopacity="0.0"
     inkscape:pagecheckerboard="0"
     inkscape:deskcolor="#d1d1d1"
     inkscape:document-units="mm"
     showgrid="false"
     inkscape:zoom="0.84096521"
     inkscape:cx="440.56519"
     inkscape:cy="619.52623"
     inkscape:window-width="1392"
     inkscape:window-height="834"
     inkscape:window-x="0"
     inkscape:window-y="38"
     inkscape:window-maximized="0"
     inkscape:current-layer="layer1" /><defs
     id="defs3262" /><g
     inkscape:label="Layer 1"
     inkscape:groupmode="layer"
     id="layer1"><path
       style="fill:none;stroke:#000000;stroke-width:0.499999;stroke-miterlimit:30;stroke-opacity:1"
       d="m 22.691835,228.14193 c 0,0 0.338176,-17.79688 0.667407,-27.36368 0.329231,-9.5668 0.928595,-20.79589 1.334814,-30.03331 0.406219,-9.23742 0.594156,-17.41829 1.104673,-25.39113 0.510517,-7.97284 1.403214,-16.97662 1.898658,-22.4397 0.495444,-5.46308 0.565776,-7.13635 1.00111,-10.34481 0.435334,-3.20846 1.044714,-6.3789 1.557284,-8.89876 0.51257,-2.51986 0.809817,-4.408908 1.446049,-6.22913 0.636232,-1.820222 1.351433,-3.762891 2.224688,-4.671848 0.873255,-0.908957 1.000535,-1.145959 2.113457,-1.112346 1.112922,0.03361 2.358827,1.02782 3.670736,2.224691 1.311909,1.196871 2.336723,2.975369 3.781973,5.116788 1.44525,2.141415 3.048742,4.787585 4.783085,7.786415 1.734343,2.99883 3.367538,6.53369 5.561724,10.23357 2.194186,3.69988 4.858383,7.56317 7.675178,11.90209 2.816795,4.33892 5.77275,9.33084 9.232464,14.12678 3.459714,4.79594 7.292013,9.66304 11.568385,14.57172 4.276372,4.90868 8.319482,9.6213 14.126781,14.79418 5.807299,5.17288 13.963499,11.26803 20.912079,15.7953 6.94858,4.52727 11.98291,7.5452 20.57838,11.45715 8.59547,3.91195 31.14566,11.23469 31.14566,11.23469"
       id="path4285"
       sodipodi:nodetypes="czzzzzzzzzzzzzzzzzzzc" /></g></svg>
