<svg width="120" height="100" viewBox="0 0 120 100" fill="none" xmlns="http://www.w3.org/2000/svg">
<g id="triangles" clip-path="url(#clip0_1_2)">
<g id="lightGroup">
<path id="light1" opacity="0.7" d="M46 46.5359C48.6667 48.0755 48.6667 51.9245 46 53.4641L11.5 73.3827C8.83333 74.9223 5.5 72.9978 5.5 69.9186V30.0814C5.5 27.0022 8.83333 25.0777 11.5 26.6173L46 46.5359Z" fill="#30CDFF"/>
</g>
<g id="darkGroup">
<path id="dark1" opacity="0.7" d="M63 46.5359C65.6667 48.0755 65.6667 51.9245 63 53.4641L28.5 73.3827C25.8333 74.9223 22.5 72.9978 22.5 69.9186V30.0814C22.5 27.0022 25.8333 25.0777 28.5 26.6173L63 46.5359Z" fill="#4030FF"/>
<path id="dark2" opacity="0.7" d="M46 46.5359C48.6667 48.0755 48.6667 51.9245 46 53.4641L11.5 73.3827C8.83333 74.9223 5.5 72.9978 5.5 69.9186V30.0814C5.5 27.0022 8.83333 25.0777 11.5 26.6173L46 46.5359Z" fill="#4030FF"/>
</g>
</g>
<defs>
<clipPath id="clip0_1_2">
<rect width="120" height="100" fill="white"/>
</clipPath>
</defs>
</svg>
