<?xml version="1.0" encoding="UTF-8" standalone="no"?>
<!-- Created with Inkscape (http://www.inkscape.org/) -->

<svg
   width="512"
   height="512"
   viewBox="0 0 135.46666 135.46667"
   version="1.1"
   id="svg5"
   inkscape:version="1.2.2 (b0a84865, 2022-12-01)"
   sodipodi:docname="chromatography.svg"
   xml:space="preserve"
   xmlns:inkscape="http://www.inkscape.org/namespaces/inkscape"
   xmlns:sodipodi="http://sodipodi.sourceforge.net/DTD/sodipodi-0.dtd"
   xmlns="http://www.w3.org/2000/svg"
   xmlns:svg="http://www.w3.org/2000/svg"><sodipodi:namedview
     id="namedview7"
     pagecolor="#ffffff"
     bordercolor="#000000"
     borderopacity="0.25"
     inkscape:showpageshadow="2"
     inkscape:pageopacity="0.0"
     inkscape:pagecheckerboard="0"
     inkscape:deskcolor="#d1d1d1"
     inkscape:document-units="mm"
     showgrid="false"
     inkscape:zoom="1.6819304"
     inkscape:cx="146.26051"
     inkscape:cy="359.11117"
     inkscape:window-width="1309"
     inkscape:window-height="812"
     inkscape:window-x="0"
     inkscape:window-y="38"
     inkscape:window-maximized="0"
     inkscape:current-layer="layer1" /><defs
     id="defs2" /><g
     inkscape:label="Layer 1"
     inkscape:groupmode="layer"
     id="layer1"><path
       style="fill:#7ae9e7;fill-opacity:1;stroke:none;stroke-width:0.499999;stroke-miterlimit:30"
       d="m 85.026367,122.86184 c 0.84805,-0.36188 1.16895,-0.40122 1.57309,-1.25847 0.40414,-0.85725 1.99895,-55.801731 1.99895,-55.801731 0,0 0.23601,-8.332779 0.518,-8.380477 0.282,-0.0477 1.05509,8.537785 1.05509,8.537785 0,0 3.713575,46.362993 3.978805,47.936263 0.26523,1.57327 0.39836,2.72307 0.777,3.87711 0.37865,1.15404 0.70398,2.24024 1.42533,3.0445 0.72136,0.80426 1.53644,1.16993 2.83156,1.5731 1.295128,0.40317 2.724238,0.38916 4.876598,0.47192 0.15013,-6.3e-4 -19.298493,0.13941 -19.034423,0 z"
       id="path473-1"
       sodipodi:nodetypes="czczczzzzcc" /><path
       style="fill:#7ae9e7;fill-opacity:1;stroke:none;stroke-width:0.499999;stroke-miterlimit:30;stroke-opacity:1"
       d="m 50.355265,122.79261 c 0,0 1.162389,-0.0575 1.77031,-0.57979 0.60792,-0.52223 0.821649,-1.56276 0.832043,-2.15567 0.0104,-0.59292 0.386526,-17.71475 0.386526,-17.71475 l 0.314619,-18.877119 0.314618,-25.3268 c 0,0 0.749908,-33.499765 0.786546,-34.765359 0.03664,-1.265594 0.267997,-9.579111 0.471926,-9.595868 0.203929,-0.01676 0.508418,8.407116 0.647505,9.799253 0.139087,1.392136 0.61097,14.111762 0.61097,14.111762 l 1.101167,36.338454 c 0,0 1.581908,39.638647 1.739945,40.844807 0.158037,1.20616 0.304444,2.73264 0.619694,3.67373 0.31525,0.94109 0.48598,1.45351 0.943856,2.04502 0.457876,0.59151 0.946152,1.17308 1.730404,1.41579 0.784252,0.24271 1.872335,0.51251 3.618113,0.62924 1.745778,0.11673 -15.888242,0.1573 -15.888242,0.1573 z"
       id="path473-0"
       sodipodi:nodetypes="czzccczzzcczzzzcc" /><path
       style="fill:#7ae9e7;fill-opacity:1;stroke:none;stroke-width:0.499999;stroke-miterlimit:30;stroke-opacity:1"
       d="m 35.519169,123.03221 c 0,0 0.644689,-0.36861 1.061837,-0.90453 0.417149,-0.53592 0.296528,-1.28061 0.393274,-2.20232 0.09675,-0.92171 1.608352,-49.693012 1.691075,-50.968226 0.08272,-1.275214 0.156653,-3.405378 0.353946,-3.401814 0.197293,0.0036 0.387165,2.452837 0.589911,3.991723 0.202746,1.538886 2.95002,46.442367 3.146186,47.546747 0.196166,1.10438 0.19046,1.88243 1.278137,3.4608 1.087677,1.57837 4.510226,2.10413 4.443989,2.16301 z"
       id="path473-5"
       sodipodi:nodetypes="czzzzzzzcc" /><path
       style="fill:none;stroke:#000000;stroke-width:0.499999;stroke-miterlimit:30"
       d="m 19.706068,122.95305 c 0,0 4.71658,0.0189 6.097506,0.0229 1.380926,0.005 1.441708,-1.43454 1.883771,-1.42314 0.271465,0.007 0.995818,2.94017 1.402856,2.95563 0.419045,0.0159 0.536764,-1.60438 1.71823,-1.61698 1.18144,-0.0126 4.177557,0.002 4.274623,-0.017 0.776515,-0.1527 1.07729,-0.25063 1.494438,-0.78655 0.417149,-0.53592 0.296528,-1.28061 0.393274,-2.20232 0.09675,-0.92171 1.608352,-49.693014 1.691075,-50.968228 0.08272,-1.275214 0.156653,-3.405378 0.353946,-3.401814 0.197293,0.0036 0.387165,2.452837 0.589911,3.991723 0.202746,1.538886 2.95002,46.442369 3.146186,47.546749 0.196166,1.10438 0.446088,2.43301 1.101164,3.30349 0.655076,0.87048 1.423031,1.31758 2.51695,1.73041 1.093919,0.41283 3.932732,0.47192 3.932732,0.47192 0,0 1.162389,-0.0575 1.77031,-0.57979 0.60792,-0.52223 0.821649,-1.56276 0.832043,-2.15567 0.0104,-0.59292 0.386526,-17.71475 0.386526,-17.71475 L 53.606228,83.2324 53.920846,57.9056 c 0,0 0.749908,-33.499766 0.786546,-34.76536 0.03664,-1.265594 0.267997,-9.579111 0.471926,-9.595868 0.203929,-0.01676 0.508418,8.407116 0.647505,9.799253 0.139087,1.392136 0.61097,14.111763 0.61097,14.111763 l 1.101167,36.338454 c 0,0 1.581908,39.638648 1.739945,40.844808 0.158037,1.20616 0.304444,2.73264 0.619694,3.67373 0.31525,0.94109 0.48598,1.45351 0.943856,2.04502 0.457876,0.59151 0.946152,1.17308 1.730404,1.41579 0.784252,0.24271 1.872335,0.51251 3.618113,0.62924 1.745778,0.11673 18.058771,0.51918 18.906821,0.1573 0.84805,-0.36188 1.168954,-0.40122 1.573094,-1.25847 0.40414,-0.85725 1.998946,-55.801731 1.998946,-55.801731 0,0 0.236007,-8.332779 0.518003,-8.380477 0.281996,-0.0477 1.05509,8.537785 1.05509,8.537785 0,0 3.713577,46.362993 3.978806,47.936263 0.265229,1.57327 0.398361,2.72307 0.777004,3.87711 0.378643,1.15404 0.703973,2.24024 1.425331,3.0445 0.721358,0.80426 1.536434,1.16993 2.83156,1.5731 1.295123,0.40317 2.724233,0.38916 4.876593,0.47192 2.15235,0.0828 7.85592,0.12079 7.85592,0.12079"
       id="path473"
       sodipodi:nodetypes="cssssszzzzzzzzczzccczzzcczzzzzzzczczzzzzc" /></g></svg>
