<?xml version="1.0" encoding="UTF-8" standalone="no"?>
<!-- Created with Inkscape (http://www.inkscape.org/) -->

<svg
   width="512"
   height="512"
   viewBox="0 0 135.46666 135.46667"
   version="1.1"
   id="svg5"
   inkscape:version="1.2.2 (b0a84865, 2022-12-01)"
   sodipodi:docname="ms.svg"
   xml:space="preserve"
   xmlns:inkscape="http://www.inkscape.org/namespaces/inkscape"
   xmlns:sodipodi="http://sodipodi.sourceforge.net/DTD/sodipodi-0.dtd"
   xmlns="http://www.w3.org/2000/svg"
   xmlns:svg="http://www.w3.org/2000/svg"><sodipodi:namedview
     id="namedview7"
     pagecolor="#ffffff"
     bordercolor="#000000"
     borderopacity="0.25"
     inkscape:showpageshadow="2"
     inkscape:pageopacity="0.0"
     inkscape:pagecheckerboard="0"
     inkscape:deskcolor="#d1d1d1"
     inkscape:document-units="mm"
     showgrid="false"
     inkscape:zoom="1.1893044"
     inkscape:cx="250.14622"
     inkscape:cy="377.53161"
     inkscape:window-width="1512"
     inkscape:window-height="916"
     inkscape:window-x="0"
     inkscape:window-y="38"
     inkscape:window-maximized="0"
     inkscape:current-layer="layer1" /><defs
     id="defs2" /><g
     inkscape:label="Layer 1"
     inkscape:groupmode="layer"
     id="layer1"><path
       style="fill:#7ae9e7;stroke:#000000;stroke-width:0.519378;stroke-miterlimit:30;stroke-opacity:1"
       d="m 12.271125,127.00023 3.382093,0.0848 1.258454,-0.0848 0.94384,-0.5941 0.393265,-0.93359 0.707881,1.10333 2.123639,0.42436 2.988826,0.0848 1.337106,-0.16975 0.550574,-0.50923 0.70788,0.59411 0.865187,0.0848 1.022494,-1.52768 0.157304,-2.54613 0.157309,-9.1661 0.550572,6.53507 0.550573,0.42438 0.07866,2.80075 0.471919,2.12177 1.101148,1.10333 h 2.674212 1.966334 l 0.94384,-1.10333 0.235958,-1.86717 0.314614,1.69743 0.865186,1.01845 0.786534,-0.16974 0.707879,-5.34688 -0.07865,-9.50559 0.235959,-0.33947 -0.07865,-15.701194 0.393267,-0.424357 -0.04083,-29.539054 0.556161,25.985646 0.389315,0.360081 -0.166849,13.562948 0.500546,0.42009 -0.166849,6.06132 0.3337,0.54011 v 4.26093 l 0.278081,0.30006 v 4.92108 l 0.444931,1.9204 0.611778,1.44032 0.723012,1.26027 1.446024,0.36009 0.667394,-0.66014 1.056711,0.60012 h 1.501639 l 0.889862,-2.34051 0.111234,-2.58055 0.500546,2.58055 1.112326,0.9002 0.723012,-1.68037 -0.05562,-2.10045 0.389314,-0.12002 -0.222465,-3.78083 0.27808,-0.24005 -0.05562,-9.60209 0.333697,-0.30007 -0.166848,-18.784076 0.278081,-0.420088 0.222466,-70.395296 0.444931,25.205476 0.222463,0.36008 -0.111232,27.485972 0.556163,0.480101 -0.333697,17.883887 0.444929,0.720157 -0.111232,9.121988 0.444929,0.480107 -0.111231,8.641862 0.222466,0.48011 0.111232,5.04109 0.222466,0.60015 0.111231,5.1611 0.444931,3.36073 0.778626,2.2805 2.002187,1.44032 1.223559,-0.4801 1.112326,0.72015 1.334792,-0.4201 0.945479,-4.08088 0.695201,1.74037 0.889861,0.9002 0.723012,-1.59034 0.222465,-4.05088 0.278083,-0.15003 -0.08343,-7.11155 0.30589,-0.27006 -0.194656,-16.233527 0.305891,-0.180037 0.250272,-58.752766 0.47274,14.043052 0.194656,21.034571 0.222465,0.330071 -0.02781,10.77234 0.417125,0.360078 -0.05562,11.642529 0.278081,0.330073 -0.111231,6.121326 0.361507,0.06 -0.08343,7.89171 0.361503,0.24005 -0.02781,4.62101 0.361504,0.36007 -0.08342,2.7306 0.417122,3.81082 0.778628,3.57078 1.306982,1.3803 1.501643,0.75017 2.947661,0.03 1.056712,-0.60013 0.667394,-1.59034 1.112327,0.81016 0.778626,0.06 0.723013,-2.88062 0.250273,-0.30006 v -3.06067 l 0.278082,-0.15003 -0.166848,-5.19113 0.333697,-0.36008 -0.02781,-17.973912 0.222462,-0.240047 0.111234,-7.231571 0.444931,7.381599 0.250273,0.210051 0.05562,4.32093 0.361507,0.36008 -0.02781,4.0809 0.194658,0.24005 0.02781,3.42073 0.250274,0.15004 0.08343,3.18069 0.166849,0.18004 0.111234,2.91063 0.333697,0.24005 -0.02781,2.01044 0.194659,2.7306 0.194657,1.68037 0.389314,0.12002 0.111231,1.71036 0.778629,2.10048 2.169035,1.59033 4.171224,0.12003 1.167941,-0.15004 0.361506,-0.72015 0.77863,0.21005 0.361504,-0.4201 0.778629,0.36008 1.140135,-0.9002 0.222465,-2.31049 0.417121,-0.36009 -0.194658,-6.06131 0.194658,-0.21006 0.02781,-3.42073 0.333698,-0.4501 0.02781,-1.95042 0.389313,1.44032 0.333699,0.12001 0.139039,1.14026 0.278082,0.0601 v 1.92041 l 0.44493,0.36008 0.30589,3.42075 0.444931,0.21004 0.222463,2.85063 0.583973,0.60013 0.222463,1.35029 0.75082,0.42008 0.30588,1.08025 2.03,1.29027 2.55835,0.18003 3.94875,0.0601 2.14123,-0.21003 1.05671,-0.8702 0.41713,-2.49053 0.19465,-1.68037 0.91767,-0.60014 0.3893,-0.45009 0.36152,0.63013 1.14013,1.77039 1.97438,2.31051 1.50165,0.81017 1.77972,0.66015 3.36478,0.06 4.47711,0.12004"
       id="path431" /></g></svg>
